<svg width="150" height="150" viewBox="0 0 150 150" fill="none" xmlns="http://www.w3.org/2000/svg">
<g clip-path="url(#clip0_104_11)">
<rect width="150" height="150" fill="white"/>
<rect width="150" height="150" fill="#FFC107"/>
<path d="M60.024 88.2C60.184 88.104 60.288 87.976 60.336 87.816C60.384 87.672 60.408 87.512 60.408 87.336C60.408 86.664 60.248 86 59.928 85.344C59.608 84.688 59.248 84.104 58.848 83.592C59.008 83.848 59.176 84.112 59.352 84.384C59.528 84.672 59.688 84.96 59.832 85.248C59.976 85.552 60.096 85.856 60.192 86.16C60.288 86.48 60.336 86.792 60.336 87.096C60.336 87.272 60.304 87.456 60.24 87.648C60.176 87.84 60.056 87.976 59.88 88.056L59.712 87.696C59.744 87.616 59.776 87.528 59.808 87.432C59.84 87.336 59.856 87.24 59.856 87.144V86.928C59.856 86.88 59.848 86.808 59.832 86.712L60.024 86.52C59.832 86.152 59.648 85.768 59.472 85.368C59.312 84.984 59.128 84.608 58.92 84.24C58.728 83.872 58.512 83.52 58.272 83.184C58.032 82.832 57.744 82.52 57.408 82.248L57.336 82.392C57.848 82.968 58.328 83.608 58.776 84.312C59.24 85.016 59.552 85.752 59.712 86.52C59.6 86.12 59.44 85.72 59.232 85.32C59.04 84.936 58.816 84.552 58.56 84.168C58.32 83.8 58.056 83.44 57.768 83.088C57.496 82.736 57.224 82.408 56.952 82.104C56.584 82.424 56.216 82.696 55.848 82.92C55.496 83.144 55.128 83.328 54.744 83.472C54.36 83.616 53.952 83.72 53.52 83.784C53.088 83.848 52.608 83.88 52.08 83.88C51.104 83.88 50.24 83.672 49.488 83.256C48.752 82.84 48.128 82.296 47.616 81.624C47.12 80.952 46.736 80.208 46.464 79.392C46.208 78.56 46.08 77.736 46.08 76.92C46.08 76.088 46.16 75.264 46.32 74.448C46.496 73.632 46.72 72.84 46.992 72.072C47.28 71.288 47.608 70.528 47.976 69.792C48.344 69.04 48.736 68.304 49.152 67.584C49.168 67.664 49.208 67.712 49.272 67.728C49.336 67.728 49.4 67.736 49.464 67.752C49.544 67.752 49.608 67.768 49.656 67.8C49.704 67.816 49.728 67.872 49.728 67.968C49.728 68.096 49.696 68.248 49.632 68.424C49.568 68.584 49.496 68.752 49.416 68.928C49.336 69.104 49.248 69.28 49.152 69.456C49.072 69.616 49 69.744 48.936 69.84L49.224 70.008C49.288 69.896 49.4 69.712 49.56 69.456C49.72 69.184 49.904 68.92 50.112 68.664C50.32 68.392 50.528 68.16 50.736 67.968C50.944 67.76 51.128 67.656 51.288 67.656C51.464 67.688 51.552 67.768 51.552 67.896C51.552 68.376 51.424 68.984 51.168 69.72C50.912 70.456 50.624 71.248 50.304 72.096C50 72.928 49.72 73.776 49.464 74.64C49.208 75.504 49.08 76.32 49.08 77.088C49.08 77.6 49.136 78.088 49.248 78.552C49.376 79 49.568 79.392 49.824 79.728C50.096 80.064 50.432 80.328 50.832 80.52C51.232 80.712 51.712 80.808 52.272 80.808C52.736 80.808 53.24 80.728 53.784 80.568C54.344 80.408 54.816 80.192 55.2 79.92L54 78.456L54.648 78.024L55.104 78.456L55.32 78.288C55.288 78.208 55.264 78.128 55.248 78.048C55.232 77.952 55.224 77.856 55.224 77.76C55.224 77.536 55.264 77.336 55.344 77.16C55.44 76.968 55.6 76.872 55.824 76.872C55.936 76.872 56.056 76.92 56.184 77.016C56.312 77.096 56.432 77.2 56.544 77.328C56.672 77.44 56.784 77.56 56.88 77.688C56.976 77.816 57.064 77.92 57.144 78C57.496 77.568 57.824 77.096 58.128 76.584C58.448 76.056 58.712 75.512 58.92 74.952C59.144 74.392 59.32 73.824 59.448 73.248C59.576 72.656 59.64 72.072 59.64 71.496C59.64 70.808 59.544 70.216 59.352 69.72C59.16 69.224 58.888 68.8 58.536 68.448C58.184 68.096 57.752 67.808 57.24 67.584C56.728 67.36 56.16 67.184 55.536 67.056C55.44 67.04 55.248 67.016 54.96 66.984C54.688 66.936 54.408 66.888 54.12 66.84C53.832 66.776 53.568 66.72 53.328 66.672C53.104 66.608 52.992 66.544 52.992 66.48C52.992 66.448 53.008 66.4 53.04 66.336C53.568 66.336 54.128 66.376 54.72 66.456C55.328 66.536 55.92 66.672 56.496 66.864C57.088 67.056 57.632 67.312 58.128 67.632C58.608 67.92 59.016 68.272 59.352 68.688C59.032 68.24 58.632 67.864 58.152 67.56C57.656 67.24 57.112 66.984 56.52 66.792C55.944 66.584 55.352 66.44 54.744 66.36C54.136 66.264 53.568 66.2 53.04 66.168C53.072 66.008 53.088 65.92 53.088 65.904C53.088 65.872 53.072 65.84 53.04 65.808C52.896 65.808 52.72 65.84 52.512 65.904C52.32 65.952 52.112 66.024 51.888 66.12C51.68 66.2 51.472 66.288 51.264 66.384C51.072 66.464 50.912 66.536 50.784 66.6C50.656 66.52 50.592 66.408 50.592 66.264C50.592 65.96 50.688 65.704 50.88 65.496C51.072 65.272 51.304 65.088 51.576 64.944C51.848 64.8 52.136 64.696 52.44 64.632C52.744 64.552 53.016 64.512 53.256 64.512C54.328 64.512 55.384 64.664 56.424 64.968C57.464 65.256 58.392 65.696 59.208 66.288C60.024 66.864 60.68 67.6 61.176 68.496C61.672 69.376 61.92 70.416 61.92 71.616C61.92 72.288 61.824 72.992 61.632 73.728C61.44 74.448 61.184 75.16 60.864 75.864C60.56 76.568 60.208 77.24 59.808 77.88C59.408 78.52 59 79.096 58.584 79.608L58.632 79.632C59.112 79.088 59.552 78.496 59.952 77.856C60.352 77.216 60.704 76.552 61.008 75.864C61.312 75.176 61.544 74.472 61.704 73.752C61.88 73.016 61.968 72.272 61.968 71.52C61.968 70.304 61.704 69.248 61.176 68.352C60.648 67.456 59.96 66.712 59.112 66.12C58.264 65.512 57.304 65.064 56.232 64.776C55.176 64.472 54.112 64.32 53.04 64.32L52.44 64.344C53.048 64.168 53.632 64.08 54.192 64.08C54.896 64.08 55.632 64.184 56.4 64.392C57.184 64.584 57.928 64.872 58.632 65.256C59.336 65.64 59.968 66.104 60.528 66.648C61.104 67.176 61.544 67.776 61.848 68.448L61.632 68.592C61.872 69.072 62.048 69.576 62.16 70.104C62.272 70.632 62.328 71.168 62.328 71.712C62.328 72.464 62.24 73.208 62.064 73.944C61.888 74.68 61.64 75.4 61.32 76.104C61.016 76.792 60.656 77.456 60.24 78.096C59.824 78.72 59.368 79.312 58.872 79.872L59.016 80.016C59.88 78.928 60.584 77.832 61.128 76.728C61.688 75.624 62.104 74.384 62.376 73.008C62.216 74.32 61.832 75.576 61.224 76.776C60.616 77.96 59.904 79.064 59.088 80.088C59.552 80.568 59.992 81.104 60.408 81.696C60.824 82.288 61.192 82.912 61.512 83.568C61.832 84.208 62.08 84.872 62.256 85.56C62.448 86.264 62.544 86.952 62.544 87.624C62.544 87.704 62.536 87.824 62.52 87.984C62.504 88.144 62.472 88.304 62.424 88.464C62.376 88.64 62.312 88.784 62.232 88.896C62.152 89.024 62.056 89.096 61.944 89.112L61.704 89.016C61.864 88.744 61.976 88.456 62.04 88.152C62.104 87.864 62.136 87.56 62.136 87.24C62.136 86.888 62.088 86.528 61.992 86.16C62.008 86.336 62.016 86.504 62.016 86.664C62.032 86.824 62.04 86.992 62.04 87.168C62.04 87.488 62.008 87.792 61.944 88.08C61.896 88.384 61.792 88.672 61.632 88.944L61.272 88.728C61.24 88.824 61.184 88.912 61.104 88.992C61.024 89.072 60.928 89.112 60.816 89.112C60.592 89.112 60.408 89.008 60.264 88.8C60.12 88.608 60.04 88.408 60.024 88.2ZM51.648 83.808C51.728 83.824 51.808 83.832 51.888 83.832H52.128C52.432 83.832 52.792 83.792 53.208 83.712C53.64 83.616 54.072 83.496 54.504 83.352C54.952 83.192 55.384 83 55.8 82.776C56.216 82.536 56.576 82.272 56.88 81.984L56.76 81.864C56.088 82.36 55.352 82.792 54.552 83.16C53.768 83.512 52.944 83.688 52.08 83.688L51.648 83.664V83.808ZM60.216 70.488C60.104 70.904 60.056 71.344 60.072 71.808C60.088 72.256 60.056 72.744 59.976 73.272C60.04 73.016 60.096 72.752 60.144 72.48C60.208 72.208 60.24 71.92 60.24 71.616V71.496L60.216 70.488ZM60.816 83.136C60.976 83.536 61.144 83.928 61.32 84.312C61.48 84.68 61.632 85.056 61.776 85.44C61.648 85.04 61.504 84.656 61.344 84.288C61.184 83.904 61.008 83.52 60.816 83.136ZM79.8234 68.544C79.7594 68.8 79.7114 69.064 79.6794 69.336C79.6634 69.608 79.6554 69.888 79.6554 70.176C79.6554 70.8 79.6634 71.44 79.6794 72.096C79.6954 72.736 79.7034 73.336 79.7034 73.896C79.7034 75.032 79.6154 76.184 79.4394 77.352C79.2794 78.504 78.9674 79.56 78.5034 80.52C78.0394 81.48 77.3834 82.296 76.5354 82.968C75.6874 83.624 74.5914 84.024 73.2474 84.168C74.7034 84.024 75.8714 83.6 76.7514 82.896C77.6314 82.176 78.3114 81.296 78.7914 80.256C79.2714 79.2 79.5914 78.048 79.7514 76.8C79.9114 75.552 79.9914 74.328 79.9914 73.128C79.9914 72.632 79.9834 72.136 79.9674 71.64C79.9514 71.144 79.9434 70.648 79.9434 70.152V69.6C79.9434 69.408 79.9514 69.224 79.9674 69.048C80.1754 69.544 80.2954 70.152 80.3274 70.872C80.3754 71.592 80.3994 72.272 80.3994 72.912C80.3994 73.584 80.3914 74.184 80.3754 74.712C80.3594 75.224 80.3034 75.816 80.2074 76.488L79.9674 76.848C79.8394 77.984 79.5994 79.024 79.2474 79.968C78.8954 80.912 78.4074 81.728 77.7834 82.416C77.1594 83.088 76.3914 83.616 75.4794 84C74.5674 84.368 73.5034 84.552 72.2874 84.552C71.2794 84.552 70.2874 84.408 69.3114 84.12C68.3514 83.848 67.4954 83.352 66.7434 82.632L66.6954 82.8C67.4474 83.536 68.2954 84.048 69.2394 84.336C70.1994 84.624 71.1914 84.768 72.2154 84.768C73.3674 84.768 74.3834 84.592 75.2634 84.24C76.1434 83.888 76.9034 83.4 77.5434 82.776C78.1994 82.136 78.7354 81.376 79.1514 80.496C79.5514 79.648 79.8634 78.704 80.0874 77.664C79.8634 78.736 79.5594 79.704 79.1754 80.568C78.7914 81.464 78.2874 82.232 77.6634 82.872C77.0394 83.512 76.2874 84 75.4074 84.336C74.5274 84.688 73.4794 84.864 72.2634 84.864C70.8714 84.864 69.6714 84.648 68.6634 84.216C67.6714 83.784 66.8554 83.176 66.2154 82.392C65.5754 81.608 65.1034 80.672 64.7994 79.584C64.4954 78.496 64.3434 77.296 64.3434 75.984C64.3434 75.28 64.3914 74.592 64.4874 73.92C64.5994 73.232 64.7274 72.552 64.8714 71.88C65.0154 71.208 65.1594 70.536 65.3034 69.864C65.4474 69.176 65.5594 68.488 65.6394 67.8H66.2154C66.3114 67.832 66.3754 67.912 66.4074 68.04C66.4394 68.168 66.4554 68.272 66.4554 68.352C66.4554 68.576 66.4394 68.792 66.4074 69C66.3754 69.208 66.3434 69.424 66.3114 69.648H66.5274C66.5434 69.552 66.5914 69.368 66.6714 69.096C66.7674 68.808 66.8714 68.52 66.9834 68.232C67.1114 67.944 67.2474 67.688 67.3914 67.464C67.5354 67.224 67.6794 67.104 67.8234 67.104C67.9194 67.104 67.9914 67.16 68.0394 67.272C68.0874 67.384 68.1194 67.512 68.1354 67.656C68.1674 67.8 68.1834 67.952 68.1834 68.112C68.1994 68.256 68.2074 68.368 68.2074 68.448C68.2074 69.104 68.1594 69.752 68.0634 70.392C67.9834 71.016 67.8874 71.648 67.7754 72.288C67.6634 72.928 67.5594 73.568 67.4634 74.208C67.3834 74.848 67.3434 75.488 67.3434 76.128C67.3434 76.976 67.4394 77.752 67.6314 78.456C67.8234 79.16 68.1274 79.768 68.5434 80.28C68.9754 80.776 69.5114 81.168 70.1514 81.456C70.8074 81.728 71.5914 81.864 72.5034 81.864C73.4794 81.864 74.2954 81.624 74.9514 81.144C75.6234 80.664 76.1594 80.056 76.5594 79.32C76.9754 78.568 77.2634 77.744 77.4234 76.848C77.5994 75.952 77.6874 75.096 77.6874 74.28C77.6874 73.608 77.6554 72.944 77.5914 72.288C77.5274 71.632 77.4954 70.968 77.4954 70.296V70.224C77.4954 70.08 77.5114 69.888 77.5434 69.648C77.5914 69.408 77.7114 69.288 77.9034 69.288C77.9354 69.288 77.9594 69.512 77.9754 69.96C78.0074 70.392 78.0314 70.888 78.0474 71.448C78.0634 72.008 78.0714 72.544 78.0714 73.056C78.0874 73.568 78.0954 73.896 78.0954 74.04V75C78.0954 75.304 78.0794 75.616 78.0474 75.936C78.1274 75.52 78.1674 75.112 78.1674 74.712C78.1834 74.312 78.1914 73.904 78.1914 73.488C78.1914 72.8 78.1754 72.112 78.1434 71.424L78.0474 69.36H78.5034C78.4714 69.2 78.4554 68.96 78.4554 68.64C78.4554 68.352 78.4874 68.072 78.5514 67.8C78.6154 67.512 78.7514 67.368 78.9594 67.368C79.0554 67.368 79.1514 67.416 79.2474 67.512C79.3434 67.608 79.4234 67.72 79.4874 67.848C79.5674 67.976 79.6314 68.112 79.6794 68.256C79.7434 68.384 79.7914 68.48 79.8234 68.544ZM76.1754 81.024C75.9514 81.152 75.6554 81.336 75.2874 81.576C74.9194 81.816 74.4394 82.04 73.8474 82.248C74.0714 82.2 74.2954 82.136 74.5194 82.056C74.7594 81.96 74.9834 81.856 75.1914 81.744C75.3994 81.616 75.5914 81.488 75.7674 81.36C75.9434 81.232 76.0794 81.12 76.1754 81.024ZM83.5026 82.536C83.8386 81.624 84.0706 80.64 84.1986 79.584C84.3266 78.512 84.4226 77.44 84.4866 76.368C84.4866 76.208 84.4786 76.056 84.4626 75.912C84.4626 75.784 84.4626 75.664 84.4626 75.552C84.4146 76.736 84.3186 77.92 84.1746 79.104C84.0466 80.32 83.7746 81.44 83.3586 82.464C83.2946 82.336 83.2466 82.224 83.2146 82.128C83.1826 82.032 83.1666 81.92 83.1666 81.792C83.1666 81.408 83.2306 81.008 83.3586 80.592C83.4866 80.176 83.5666 79.744 83.5986 79.296L83.9346 79.152C83.9346 78.368 83.9666 77.592 84.0306 76.824C84.0946 76.04 84.1266 75.256 84.1266 74.472C84.1266 74.072 84.1106 73.68 84.0786 73.296C84.0626 72.912 84.0146 72.512 83.9346 72.096H83.7906C83.8866 73.232 83.9346 74.32 83.9346 75.36C83.9346 75.888 83.9186 76.392 83.8866 76.872C83.8546 77.32 83.7986 77.776 83.7186 78.24C83.7666 77.888 83.7986 77.552 83.8146 77.232C83.8466 76.864 83.8626 76.472 83.8626 76.056C83.8626 74.76 83.8066 73.448 83.6946 72.12C83.5986 70.776 83.5106 69.4 83.4306 67.992V67.32C83.4786 67.128 83.5026 66.92 83.5026 66.696C83.5186 66.472 83.5426 66.256 83.5746 66.048C83.6066 65.84 83.6626 65.672 83.7426 65.544C83.8386 65.4 83.9906 65.328 84.1986 65.328L84.6066 65.448L84.7506 65.736H84.9666C85.0306 65.64 85.1026 65.592 85.1826 65.592C85.2786 65.592 85.3746 65.632 85.4706 65.712C85.5666 65.776 85.6786 65.808 85.8066 65.808C86.0466 65.808 86.2146 65.976 86.3106 66.312C86.4066 66.632 86.4706 67.04 86.5026 67.536C86.5346 68.016 86.5506 68.552 86.5506 69.144C86.5506 69.72 86.5826 70.264 86.6466 70.776C86.6946 71.24 86.7346 71.712 86.7666 72.192C86.8146 72.656 86.8386 73.128 86.8386 73.608C86.8386 74.088 86.8226 74.648 86.7906 75.288C86.7586 75.928 86.7106 76.592 86.6466 77.28C86.5986 77.952 86.5346 78.624 86.4546 79.296C86.3746 79.968 86.2866 80.568 86.1906 81.096C86.0946 81.624 85.9826 82.056 85.8546 82.392C85.7266 82.712 85.5986 82.872 85.4706 82.872C85.4386 82.872 85.3906 82.856 85.3266 82.824C85.4386 82.312 85.5426 81.8 85.6386 81.288C85.7506 80.776 85.8466 80.24 85.9266 79.68C85.8146 80.192 85.6946 80.72 85.5666 81.264C85.4546 81.792 85.3266 82.288 85.1826 82.752C85.1186 82.688 85.0386 82.656 84.9426 82.656C84.9106 82.656 84.8706 82.696 84.8226 82.776C84.7906 82.856 84.7426 82.952 84.6786 83.064C84.6146 83.16 84.5346 83.248 84.4386 83.328C84.3426 83.408 84.2386 83.448 84.1266 83.448C84.0146 83.448 83.9266 83.424 83.8626 83.376C83.7986 83.328 83.7426 83.272 83.6946 83.208C83.6626 83.128 83.6226 83.048 83.5746 82.968C83.5426 82.888 83.4946 82.816 83.4306 82.752L83.5026 82.536ZM86.2866 75.624C86.1906 75.944 86.1186 76.24 86.0706 76.512C86.0386 76.768 86.0146 77.016 85.9986 77.256C85.9986 77.496 85.9986 77.744 85.9986 78C85.9986 78.224 85.9906 78.472 85.9746 78.744C86.0386 78.2 86.0946 77.704 86.1426 77.256C86.2066 76.776 86.2546 76.232 86.2866 75.624ZM83.7186 78.336C83.7186 78.304 83.7186 78.272 83.7186 78.24C83.7186 78.272 83.7186 78.304 83.7186 78.336ZM103.985 85.896C102.417 85.688 100.833 85.576 99.2331 85.56C97.6491 85.544 96.0651 85.464 94.4811 85.32C95.9691 85.496 97.4491 85.624 98.9211 85.704C100.393 85.8 101.881 85.912 103.385 86.04C103.001 86.136 102.609 86.2 102.209 86.232C101.825 86.264 101.433 86.28 101.033 86.28C99.9771 86.28 98.9611 86.24 97.9851 86.16C97.0091 86.08 95.9931 85.992 94.9371 85.896L94.7211 85.608C93.9051 85.576 93.0331 85.488 92.1051 85.344C91.1931 85.2 90.3531 84.968 89.5851 84.648C89.4411 84.328 89.3051 84.008 89.1771 83.688C89.0651 83.368 88.9291 83.056 88.7691 82.752C88.9451 82.352 89.1531 82.008 89.3931 81.72C89.6491 81.416 89.9291 81.136 90.2331 80.88C91.0971 80.144 91.9051 79.352 92.6571 78.504C93.4091 77.656 94.1371 76.792 94.8411 75.912C95.5451 75.016 96.2491 74.128 96.9531 73.248C97.6731 72.352 98.4331 71.504 99.2331 70.704H93.8331C92.8251 70.704 91.8331 70.752 90.8571 70.848V70.8C90.8571 70.704 90.8411 70.608 90.8091 70.512C90.7771 70.4 90.7611 70.328 90.7611 70.296C90.7611 70.184 90.8491 70.096 91.0251 70.032C91.2171 69.968 91.4251 69.92 91.6491 69.888C91.8891 69.856 92.1131 69.84 92.3211 69.84C92.5451 69.824 92.6891 69.816 92.7531 69.816V69.6C92.6571 69.6 92.4411 69.584 92.1051 69.552C91.7691 69.52 91.4171 69.48 91.0491 69.432C90.6811 69.368 90.3531 69.288 90.0651 69.192C89.7771 69.08 89.6331 68.952 89.6331 68.808C89.6331 68.68 89.7931 68.568 90.1131 68.472C90.4491 68.36 90.8891 68.264 91.4331 68.184C91.9771 68.088 92.5851 68.016 93.2571 67.968C93.9451 67.904 94.6411 67.856 95.3451 67.824C96.0491 67.776 96.7291 67.744 97.3851 67.728C98.0571 67.696 98.6491 67.68 99.1611 67.68C99.4651 67.68 99.7771 67.712 100.097 67.776C100.433 67.824 100.761 67.88 101.081 67.944C101.417 68.008 101.745 68.072 102.065 68.136C102.385 68.184 102.681 68.208 102.953 68.208C103.049 68.56 103.137 68.968 103.217 69.432C103.313 69.896 103.401 70.368 103.481 70.848C103.065 71.056 102.569 71.456 101.993 72.048C101.417 72.64 100.801 73.328 100.145 74.112C99.4891 74.896 98.8091 75.736 98.1051 76.632C97.4011 77.528 96.7131 78.384 96.0411 79.2C95.3691 80 94.7291 80.72 94.1211 81.36C93.5291 81.984 93.0091 82.432 92.5611 82.704C93.4251 82.88 94.2891 83.024 95.1531 83.136C96.0171 83.232 96.8811 83.32 97.7451 83.4C97.9691 83.416 98.2651 83.432 98.6331 83.448C99.0011 83.448 99.3851 83.448 99.7851 83.448C100.201 83.448 100.617 83.456 101.033 83.472C101.449 83.472 101.817 83.488 102.137 83.52C102.473 83.552 102.745 83.6 102.953 83.664C103.161 83.712 103.265 83.784 103.265 83.88L103.241 84C101.961 83.968 100.689 83.944 99.4251 83.928C98.1611 83.896 96.8891 83.816 95.6091 83.688C96.8571 83.848 98.1131 83.944 99.3771 83.976C100.641 84.008 101.905 84.064 103.169 84.144L103.097 84.576C103.129 84.576 103.161 84.568 103.193 84.552C103.241 84.552 103.297 84.552 103.361 84.552C103.521 84.552 103.713 84.56 103.937 84.576C104.177 84.608 104.401 84.648 104.609 84.696C104.817 84.76 104.993 84.832 105.137 84.912C105.297 85.008 105.377 85.112 105.377 85.224C105.377 85.336 105.313 85.424 105.185 85.488C105.073 85.568 104.937 85.632 104.777 85.68C104.633 85.728 104.481 85.768 104.321 85.8L103.985 85.896ZM88.9371 82.896L89.0571 82.608C89.1371 82.384 89.2811 82.16 89.4891 81.936C89.7131 81.712 89.9131 81.52 90.0891 81.36C91.4971 80.144 92.8091 78.848 94.0251 77.472C95.2571 76.096 96.4251 74.664 97.5291 73.176L97.2411 73.056C96.4411 74.032 95.6571 75.008 94.8891 75.984C94.1371 76.96 93.3371 77.912 92.4891 78.84C92.1851 79.176 91.8731 79.496 91.5531 79.8C91.2331 80.088 90.9131 80.384 90.5931 80.688C90.2891 80.992 89.9851 81.312 89.6811 81.648C89.3931 81.968 89.1211 82.312 88.8651 82.68L88.9371 82.896ZM89.7291 84.408C89.9531 84.536 90.2011 84.64 90.4731 84.72C90.7611 84.816 91.0571 84.888 91.3611 84.936C91.6651 84.984 91.9691 85.024 92.2731 85.056C92.4651 85.072 92.6651 85.088 92.8731 85.104C92.3771 85.024 91.8891 84.904 91.4091 84.744C90.8491 84.552 90.2891 84.4 89.7291 84.288L89.2971 83.112C89.3291 82.92 89.4891 82.664 89.7771 82.344C90.0811 82.008 90.4171 81.656 90.7851 81.288C91.1691 80.92 91.5371 80.56 91.8891 80.208C92.2571 79.856 92.5291 79.568 92.7051 79.344C92.5611 79.52 92.2971 79.768 91.9131 80.088C91.5451 80.408 91.1611 80.752 90.7611 81.12C90.3771 81.472 90.0331 81.816 89.7291 82.152C89.4411 82.472 89.2971 82.72 89.2971 82.896L89.1531 83.04L89.6571 84.312L89.7291 84.408ZM92.0571 83.184C92.5691 83.296 93.0811 83.392 93.5931 83.472C94.0891 83.552 94.5851 83.616 95.0811 83.664C94.5851 83.6 94.1051 83.512 93.6411 83.4C93.1771 83.288 92.6891 83.176 92.1771 83.064L92.0571 83.184ZM90.9531 85.248C90.4891 85.136 90.0251 85.016 89.5611 84.888L89.6571 84.792C90.0891 84.984 90.5291 85.128 90.9771 85.224C91.3771 85.32 91.7851 85.416 92.2011 85.512C91.7851 85.432 91.3691 85.344 90.9531 85.248Z" fill="#808080"/>
</g>
<defs>
<clipPath id="clip0_104_11">
<rect width="150" height="150" fill="white"/>
</clipPath>
</defs>
</svg>
