<svg width="35" height="15" viewBox="0 0 35 15" fill="none" xmlns="http://www.w3.org/2000/svg">
<path d="M8.134 14.07C8.22733 14.014 8.288 13.9393 8.316 13.846C8.344 13.762 8.358 13.6687 8.358 13.566C8.358 13.174 8.26467 12.7867 8.078 12.404C7.89133 12.0213 7.68133 11.6807 7.448 11.382C7.54133 11.5313 7.63933 11.6853 7.742 11.844C7.84467 12.012 7.938 12.18 8.022 12.348C8.106 12.5253 8.176 12.7027 8.232 12.88C8.288 13.0667 8.316 13.2487 8.316 13.426C8.316 13.5287 8.29733 13.636 8.26 13.748C8.22267 13.86 8.15267 13.9393 8.05 13.986L7.952 13.776C7.97067 13.7293 7.98933 13.678 8.008 13.622C8.02667 13.566 8.036 13.51 8.036 13.454V13.328C8.036 13.3 8.03133 13.258 8.022 13.202L8.134 13.09C8.022 12.8753 7.91467 12.6513 7.812 12.418C7.71867 12.194 7.61133 11.9747 7.49 11.76C7.378 11.5453 7.252 11.34 7.112 11.144C6.972 10.9387 6.804 10.7567 6.608 10.598L6.566 10.682C6.86467 11.018 7.14467 11.3913 7.406 11.802C7.67667 12.2127 7.85867 12.642 7.952 13.09C7.88667 12.8567 7.79333 12.6233 7.672 12.39C7.56 12.166 7.42933 11.942 7.28 11.718C7.14 11.5033 6.986 11.2933 6.818 11.088C6.65933 10.8827 6.50067 10.6913 6.342 10.514C6.12733 10.7007 5.91267 10.8593 5.698 10.99C5.49267 11.1207 5.278 11.228 5.054 11.312C4.83 11.396 4.592 11.4567 4.34 11.494C4.088 11.5313 3.808 11.55 3.5 11.55C2.93067 11.55 2.42667 11.4287 1.988 11.186C1.55867 10.9433 1.19467 10.626 0.896 10.234C0.60667 9.842 0.38267 9.408 0.224 8.932C0.074667 8.44667 0 7.966 0 7.49C0 7.00467 0.046667 6.524 0.14 6.048C0.242667 5.572 0.37333 5.11 0.532 4.662C0.7 4.20467 0.89133 3.76133 1.106 3.332C1.32067 2.89333 1.54933 2.464 1.792 2.044C1.80133 2.09067 1.82467 2.11867 1.862 2.128C1.89933 2.128 1.93667 2.13267 1.974 2.142C2.02067 2.142 2.058 2.15133 2.086 2.17C2.114 2.17933 2.128 2.212 2.128 2.268C2.128 2.34267 2.10933 2.43133 2.072 2.534C2.03467 2.62733 1.99267 2.72533 1.946 2.828C1.89933 2.93067 1.848 3.03333 1.792 3.136C1.74533 3.22933 1.70333 3.304 1.666 3.36L1.834 3.458C1.87133 3.39267 1.93667 3.28533 2.03 3.136C2.12333 2.97733 2.23067 2.82333 2.352 2.674C2.47333 2.51533 2.59467 2.38 2.716 2.268C2.83733 2.14667 2.94467 2.086 3.038 2.086C3.14067 2.10467 3.192 2.15133 3.192 2.226C3.192 2.506 3.11733 2.86067 2.968 3.29C2.81867 3.71933 2.65067 4.18133 2.464 4.676C2.28667 5.16133 2.12333 5.656 1.974 6.16C1.82467 6.664 1.75 7.14 1.75 7.588C1.75 7.88667 1.78267 8.17133 1.848 8.442C1.92267 8.70333 2.03467 8.932 2.184 9.128C2.34267 9.324 2.53867 9.478 2.772 9.59C3.00533 9.702 3.28533 9.758 3.612 9.758C3.88267 9.758 4.17667 9.7113 4.494 9.618C4.82067 9.52467 5.096 9.39867 5.32 9.24L4.62 8.386L4.998 8.134L5.264 8.386L5.39 8.288C5.37133 8.24133 5.35733 8.19467 5.348 8.148C5.33867 8.092 5.334 8.036 5.334 7.98C5.334 7.84933 5.35733 7.73267 5.404 7.63C5.46 7.518 5.55333 7.462 5.684 7.462C5.74933 7.462 5.81933 7.49 5.894 7.546C5.96867 7.59267 6.03867 7.65333 6.104 7.728C6.17867 7.79333 6.244 7.86333 6.3 7.938C6.356 8.01267 6.40733 8.07333 6.454 8.12C6.65933 7.868 6.85067 7.59267 7.028 7.294C7.21467 6.986 7.36867 6.66867 7.49 6.342C7.62067 6.01533 7.72333 5.684 7.798 5.348C7.87267 5.00267 7.91 4.662 7.91 4.326C7.91 3.92467 7.854 3.57933 7.742 3.29C7.63 3.00067 7.47133 2.75333 7.266 2.548C7.06067 2.34267 6.80867 2.17467 6.51 2.044C6.21133 1.91333 5.88 1.81067 5.516 1.736C5.46 1.72667 5.348 1.71267 5.18 1.694C5.02133 1.666 4.858 1.638 4.69 1.61C4.522 1.57267 4.368 1.54 4.228 1.512C4.09733 1.47467 4.032 1.43733 4.032 1.4C4.032 1.38133 4.04133 1.35333 4.06 1.316C4.368 1.316 4.69467 1.33933 5.04 1.386C5.39467 1.43267 5.74 1.512 6.076 1.624C6.42133 1.736 6.73867 1.88533 7.028 2.072C7.308 2.24 7.546 2.44533 7.742 2.688C7.55533 2.42667 7.322 2.20733 7.042 2.03C6.75267 1.84333 6.43533 1.694 6.09 1.582C5.754 1.46067 5.40867 1.37667 5.054 1.33C4.69933 1.274 4.368 1.23667 4.06 1.218C4.07867 1.12467 4.088 1.07333 4.088 1.064C4.088 1.04533 4.07867 1.02667 4.06 1.008C3.976 1.008 3.87333 1.02667 3.752 1.064C3.64 1.092 3.51867 1.134 3.388 1.19C3.26667 1.23667 3.14533 1.288 3.024 1.344C2.912 1.39067 2.81867 1.43267 2.744 1.47C2.66933 1.42333 2.632 1.358 2.632 1.274C2.632 1.09667 2.688 0.947331 2.8 0.826001C2.912 0.695331 3.04733 0.588001 3.206 0.504001C3.36467 0.420001 3.53267 0.359334 3.71 0.322C3.88733 0.275334 4.046 0.252 4.186 0.252C4.81133 0.252 5.42733 0.340667 6.034 0.518C6.64067 0.686001 7.182 0.942671 7.658 1.288C8.134 1.624 8.51667 2.05333 8.806 2.576C9.09533 3.08933 9.24 3.696 9.24 4.396C9.24 4.788 9.184 5.19867 9.072 5.628C8.96 6.048 8.81067 6.46333 8.624 6.874C8.44667 7.28467 8.24133 7.67667 8.008 8.05C7.77467 8.42333 7.53667 8.75933 7.294 9.058L7.322 9.072C7.602 8.75467 7.85867 8.40933 8.092 8.036C8.32533 7.66267 8.53067 7.27533 8.708 6.874C8.88533 6.47267 9.02067 6.062 9.114 5.642C9.21667 5.21267 9.268 4.77867 9.268 4.34C9.268 3.63067 9.114 3.01467 8.806 2.492C8.498 1.96933 8.09667 1.53533 7.602 1.19C7.10733 0.835331 6.54733 0.574 5.922 0.406C5.306 0.228667 4.68533 0.14 4.06 0.14L3.71 0.154C4.06467 0.051334 4.40533 0 4.732 0C5.14267 0 5.572 0.060667 6.02 0.182001C6.47733 0.294 6.91133 0.462 7.322 0.686001C7.73267 0.910001 8.10133 1.18067 8.428 1.498C8.764 1.806 9.02067 2.156 9.198 2.548L9.072 2.632C9.212 2.912 9.31467 3.206 9.38 3.514C9.4453 3.822 9.478 4.13467 9.478 4.452C9.478 4.89067 9.4267 5.32467 9.324 5.754C9.22133 6.18333 9.07667 6.60333 8.89 7.014C8.71267 7.41533 8.50267 7.80267 8.26 8.176C8.01733 8.54 7.75133 8.88533 7.462 9.212L7.546 9.296C8.05 8.66133 8.46067 8.022 8.778 7.378C9.10467 6.734 9.34733 6.01067 9.506 5.208C9.4127 5.97333 9.18867 6.706 8.834 7.406C8.47933 8.09667 8.064 8.74067 7.588 9.338C7.85867 9.618 8.11533 9.9307 8.358 10.276C8.60067 10.6213 8.81533 10.9853 9.002 11.368C9.18867 11.7413 9.33333 12.1287 9.436 12.53C9.548 12.9407 9.604 13.342 9.604 13.734C9.604 13.7807 9.5993 13.8507 9.59 13.944C9.5807 14.0373 9.562 14.1307 9.534 14.224C9.506 14.3267 9.4687 14.4107 9.422 14.476C9.3753 14.5507 9.31933 14.5927 9.254 14.602L9.114 14.546C9.20733 14.3873 9.27267 14.2193 9.31 14.042C9.34733 13.874 9.366 13.6967 9.366 13.51C9.366 13.3047 9.338 13.0947 9.282 12.88C9.29133 12.9827 9.296 13.0807 9.296 13.174C9.30533 13.2673 9.31 13.3653 9.31 13.468C9.31 13.6547 9.29133 13.832 9.254 14C9.226 14.1773 9.16533 14.3453 9.072 14.504L8.862 14.378C8.84333 14.434 8.81067 14.4853 8.764 14.532C8.71733 14.5787 8.66133 14.602 8.596 14.602C8.46533 14.602 8.358 14.5413 8.274 14.42C8.19 14.308 8.14333 14.1913 8.134 14.07ZM3.248 11.508C3.29467 11.5173 3.34133 11.522 3.388 11.522H3.528C3.70533 11.522 3.91533 11.4987 4.158 11.452C4.41 11.396 4.662 11.326 4.914 11.242C5.17533 11.1487 5.42733 11.0367 5.67 10.906C5.91267 10.766 6.12267 10.612 6.3 10.444L6.23 10.374C5.838 10.6633 5.40867 10.9153 4.942 11.13C4.48467 11.3353 4.004 11.438 3.5 11.438L3.248 11.424V11.508ZM8.246 3.738C8.18067 3.98067 8.15267 4.23733 8.162 4.508C8.17133 4.76933 8.15267 5.054 8.106 5.362C8.14333 5.21267 8.176 5.05867 8.204 4.9C8.24133 4.74133 8.26 4.57333 8.26 4.396V4.326L8.246 3.738ZM8.596 11.116C8.68933 11.3493 8.78733 11.578 8.89 11.802C8.98333 12.0167 9.072 12.236 9.156 12.46C9.08133 12.2267 8.99733 12.0027 8.904 11.788C8.81067 11.564 8.708 11.34 8.596 11.116ZM19.6837 2.604C19.6463 2.75333 19.6183 2.90733 19.5997 3.066C19.5903 3.22467 19.5857 3.388 19.5857 3.556C19.5857 3.92 19.5903 4.29333 19.5997 4.676C19.609 5.04933 19.6137 5.39933 19.6137 5.726C19.6137 6.38867 19.5623 7.06067 19.4597 7.742C19.3663 8.414 19.1843 9.03 18.9137 9.59C18.643 10.15 18.2603 10.626 17.7657 11.018C17.271 11.4007 16.6317 11.634 15.8477 11.718C16.697 11.634 17.3783 11.3867 17.8917 10.976C18.405 10.556 18.8017 10.0427 19.0817 9.436C19.3617 8.82 19.5483 8.148 19.6417 7.42C19.735 6.692 19.7817 5.978 19.7817 5.278C19.7817 4.98867 19.777 4.69933 19.7677 4.41C19.7583 4.12067 19.7537 3.83133 19.7537 3.542V3.22C19.7537 3.108 19.7583 3.00067 19.7677 2.898C19.889 3.18733 19.959 3.542 19.9777 3.962C20.0057 4.382 20.0197 4.77867 20.0197 5.152C20.0197 5.544 20.015 5.894 20.0057 6.202C19.9963 6.50067 19.9637 6.846 19.9077 7.238L19.7677 7.448C19.693 8.11067 19.553 8.71733 19.3477 9.268C19.1423 9.8187 18.8577 10.2947 18.4937 10.696C18.1297 11.088 17.6817 11.396 17.1497 11.62C16.6177 11.8347 15.997 11.942 15.2877 11.942C14.6997 11.942 14.121 11.858 13.5517 11.69C12.9917 11.5313 12.4923 11.242 12.0537 10.822L12.0257 10.92C12.4643 11.3493 12.959 11.648 13.5097 11.816C14.0697 11.984 14.6483 12.068 15.2457 12.068C15.9177 12.068 16.5103 11.9653 17.0237 11.76C17.537 11.5547 17.9803 11.27 18.3537 10.906C18.7363 10.5327 19.049 10.0893 19.2917 9.576C19.525 9.08133 19.707 8.53067 19.8377 7.924C19.707 8.54933 19.5297 9.114 19.3057 9.618C19.0817 10.1407 18.7877 10.5887 18.4237 10.962C18.0597 11.3353 17.621 11.62 17.1077 11.816C16.5943 12.0213 15.983 12.124 15.2737 12.124C14.4617 12.124 13.7617 11.998 13.1737 11.746C12.595 11.494 12.119 11.1393 11.7457 10.682C11.3723 10.2247 11.097 9.6787 10.9197 9.044C10.7423 8.40933 10.6537 7.70933 10.6537 6.944C10.6537 6.53333 10.6817 6.132 10.7377 5.74C10.803 5.33867 10.8777 4.942 10.9617 4.55C11.0457 4.158 11.1297 3.766 11.2137 3.374C11.2977 2.97267 11.363 2.57133 11.4097 2.17H11.7457C11.8017 2.18867 11.839 2.23533 11.8577 2.31C11.8763 2.38467 11.8857 2.44533 11.8857 2.492C11.8857 2.62267 11.8763 2.74867 11.8577 2.87C11.839 2.99133 11.8203 3.11733 11.8017 3.248H11.9277C11.937 3.192 11.965 3.08467 12.0117 2.926C12.0677 2.758 12.1283 2.59 12.1937 2.422C12.2683 2.254 12.3477 2.10467 12.4317 1.974C12.5157 1.834 12.5997 1.764 12.6837 1.764C12.7397 1.764 12.7817 1.79667 12.8097 1.862C12.8377 1.92733 12.8563 2.002 12.8657 2.086C12.8843 2.17 12.8937 2.25867 12.8937 2.352C12.903 2.436 12.9077 2.50133 12.9077 2.548C12.9077 2.93067 12.8797 3.30867 12.8237 3.682C12.777 4.046 12.721 4.41467 12.6557 4.788C12.5903 5.16133 12.5297 5.53467 12.4737 5.908C12.427 6.28133 12.4037 6.65467 12.4037 7.028C12.4037 7.52267 12.4597 7.97533 12.5717 8.386C12.6837 8.79667 12.861 9.15133 13.1037 9.45C13.3557 9.7393 13.6683 9.968 14.0417 10.136C14.4243 10.2947 14.8817 10.374 15.4137 10.374C15.983 10.374 16.459 10.234 16.8417 9.954C17.2337 9.674 17.5463 9.31933 17.7797 8.89C18.0223 8.45133 18.1903 7.97067 18.2837 7.448C18.3863 6.92533 18.4377 6.426 18.4377 5.95C18.4377 5.558 18.419 5.17067 18.3817 4.788C18.3443 4.40533 18.3257 4.018 18.3257 3.626V3.584C18.3257 3.5 18.335 3.388 18.3537 3.248C18.3817 3.108 18.4517 3.038 18.5637 3.038C18.5823 3.038 18.5963 3.16867 18.6057 3.43C18.6243 3.682 18.6383 3.97133 18.6477 4.298C18.657 4.62467 18.6617 4.93733 18.6617 5.236C18.671 5.53467 18.6757 5.726 18.6757 5.81V6.37C18.6757 6.54733 18.6663 6.72933 18.6477 6.916C18.6943 6.67333 18.7177 6.43533 18.7177 6.202C18.727 5.96867 18.7317 5.73067 18.7317 5.488C18.7317 5.08667 18.7223 4.68533 18.7037 4.284L18.6477 3.08H18.9137C18.895 2.98667 18.8857 2.84667 18.8857 2.66C18.8857 2.492 18.9043 2.32867 18.9417 2.17C18.979 2.002 19.0583 1.918 19.1797 1.918C19.2357 1.918 19.2917 1.946 19.3477 2.002C19.4037 2.058 19.4503 2.12333 19.4877 2.198C19.5343 2.27267 19.5717 2.352 19.5997 2.436C19.637 2.51067 19.665 2.56667 19.6837 2.604ZM17.5557 9.884C17.425 9.9587 17.2523 10.066 17.0377 10.206C16.823 10.346 16.543 10.4767 16.1977 10.598C16.3283 10.57 16.459 10.5327 16.5897 10.486C16.7297 10.43 16.8603 10.3693 16.9817 10.304C17.103 10.2293 17.215 10.1547 17.3177 10.08C17.4203 10.0053 17.4997 9.94 17.5557 9.884ZM21.8298 10.766C22.0258 10.234 22.1612 9.66 22.2358 9.044C22.3105 8.41867 22.3665 7.79333 22.4038 7.168C22.4038 7.07467 22.3992 6.986 22.3898 6.902C22.3898 6.82733 22.3898 6.75733 22.3898 6.692C22.3618 7.38267 22.3058 8.07333 22.2218 8.764C22.1472 9.47333 21.9885 10.1267 21.7458 10.724C21.7085 10.6493 21.6805 10.584 21.6618 10.528C21.6432 10.472 21.6338 10.4067 21.6338 10.332C21.6338 10.108 21.6712 9.8747 21.7458 9.632C21.8205 9.38933 21.8672 9.13733 21.8858 8.876L22.0818 8.792C22.0818 8.33467 22.1005 7.882 22.1378 7.434C22.1752 6.97667 22.1938 6.51933 22.1938 6.062C22.1938 5.82867 22.1845 5.6 22.1658 5.376C22.1565 5.152 22.1285 4.91867 22.0818 4.676H21.9978C22.0538 5.33867 22.0818 5.97333 22.0818 6.58C22.0818 6.888 22.0725 7.182 22.0538 7.462C22.0352 7.72333 22.0025 7.98933 21.9558 8.26C21.9838 8.05467 22.0025 7.85867 22.0118 7.672C22.0305 7.45733 22.0398 7.22867 22.0398 6.986C22.0398 6.23 22.0072 5.46467 21.9418 4.69C21.8858 3.906 21.8345 3.10333 21.7878 2.282V1.89C21.8158 1.778 21.8298 1.65667 21.8298 1.526C21.8392 1.39533 21.8532 1.26933 21.8718 1.148C21.8905 1.02667 21.9232 0.928671 21.9698 0.854001C22.0258 0.770001 22.1145 0.728001 22.2358 0.728001L22.4738 0.798001L22.5578 0.966001H22.6838C22.7212 0.910001 22.7632 0.882001 22.8098 0.882001C22.8658 0.882001 22.9218 0.905331 22.9778 0.952001C23.0338 0.989331 23.0992 1.008 23.1738 1.008C23.3138 1.008 23.4118 1.106 23.4678 1.302C23.5238 1.48867 23.5612 1.72667 23.5798 2.016C23.5985 2.296 23.6078 2.60867 23.6078 2.954C23.6078 3.29 23.6265 3.60733 23.6638 3.906C23.6918 4.17667 23.7152 4.452 23.7338 4.732C23.7618 5.00267 23.7758 5.278 23.7758 5.558C23.7758 5.838 23.7665 6.16467 23.7478 6.538C23.7292 6.91133 23.7012 7.29867 23.6638 7.7C23.6358 8.092 23.5985 8.484 23.5518 8.876C23.5052 9.268 23.4538 9.618 23.3978 9.926C23.3418 10.234 23.2765 10.486 23.2018 10.682C23.1272 10.8687 23.0525 10.962 22.9778 10.962C22.9592 10.962 22.9312 10.9527 22.8938 10.934C22.9592 10.6353 23.0198 10.3367 23.0758 10.038C23.1412 9.7393 23.1972 9.42667 23.2438 9.1C23.1785 9.39867 23.1085 9.7067 23.0338 10.024C22.9685 10.332 22.8938 10.6213 22.8098 10.892C22.7725 10.8547 22.7258 10.836 22.6698 10.836C22.6512 10.836 22.6278 10.8593 22.5998 10.906C22.5812 10.9527 22.5532 11.0087 22.5158 11.074C22.4785 11.13 22.4318 11.1813 22.3758 11.228C22.3198 11.2747 22.2592 11.298 22.1938 11.298C22.1285 11.298 22.0772 11.284 22.0398 11.256C22.0025 11.228 21.9698 11.1953 21.9418 11.158C21.9232 11.1113 21.8998 11.0647 21.8718 11.018C21.8532 10.9713 21.8252 10.9293 21.7878 10.892L21.8298 10.766ZM23.4538 6.734C23.3978 6.92067 23.3558 7.09333 23.3278 7.252C23.3092 7.40133 23.2952 7.546 23.2858 7.686C23.2858 7.826 23.2858 7.97067 23.2858 8.12C23.2858 8.25067 23.2812 8.39533 23.2718 8.554C23.3092 8.23667 23.3418 7.94733 23.3698 7.686C23.4072 7.406 23.4352 7.08867 23.4538 6.734ZM33.778 12.726C32.8633 12.6047 31.9393 12.5393 31.006 12.53C30.082 12.5207 29.158 12.474 28.234 12.39C29.102 12.4927 29.9653 12.5673 30.824 12.614C31.6826 12.67 32.5506 12.7353 33.428 12.81C33.204 12.866 32.9753 12.9033 32.742 12.922C32.518 12.9407 32.2893 12.95 32.056 12.95C31.44 12.95 30.8473 12.9267 30.278 12.88C29.7086 12.8333 29.116 12.782 28.5 12.726L28.374 12.558C27.898 12.5393 27.3893 12.488 26.848 12.404C26.316 12.32 25.826 12.1847 25.378 11.998C25.294 11.8113 25.2146 11.6247 25.14 11.438C25.0746 11.2513 24.9953 11.0693 24.902 10.892C25.0046 10.6587 25.126 10.458 25.266 10.29C25.4153 10.1127 25.5786 9.9493 25.756 9.8C26.26 9.37067 26.7313 8.90867 27.17 8.414C27.6086 7.91933 28.0333 7.41533 28.444 6.902C28.8546 6.37933 29.2653 5.86133 29.676 5.348C30.096 4.82533 30.5393 4.33067 31.006 3.864H27.856C27.268 3.864 26.6893 3.892 26.12 3.948V3.92C26.12 3.864 26.1106 3.808 26.092 3.752C26.0733 3.68667 26.064 3.64467 26.064 3.626C26.064 3.56067 26.1153 3.50933 26.218 3.472C26.33 3.43467 26.4513 3.40667 26.582 3.388C26.722 3.36933 26.8526 3.36 26.974 3.36C27.1046 3.35067 27.1886 3.346 27.226 3.346V3.22C27.17 3.22 27.044 3.21067 26.848 3.192C26.652 3.17333 26.4466 3.15 26.232 3.122C26.0173 3.08467 25.826 3.038 25.658 2.982C25.49 2.91667 25.406 2.842 25.406 2.758C25.406 2.68333 25.4993 2.618 25.686 2.562C25.882 2.49667 26.1386 2.44067 26.456 2.394C26.7733 2.338 27.128 2.296 27.52 2.268C27.9213 2.23067 28.3273 2.20267 28.738 2.184C29.1486 2.156 29.5453 2.13733 29.928 2.128C30.32 2.10933 30.6653 2.1 30.964 2.1C31.1413 2.1 31.3233 2.11867 31.51 2.156C31.706 2.184 31.8973 2.21667 32.084 2.254C32.28 2.29133 32.4713 2.32867 32.658 2.366C32.8446 2.394 33.0173 2.408 33.176 2.408C33.232 2.61333 33.2833 2.85133 33.33 3.122C33.386 3.39267 33.4373 3.668 33.484 3.948C33.2413 4.06933 32.952 4.30267 32.616 4.648C32.28 4.99333 31.9206 5.39467 31.538 5.852C31.1553 6.30933 30.7586 6.79933 30.348 7.322C29.9373 7.84467 29.536 8.344 29.144 8.82C28.752 9.28667 28.3786 9.7067 28.024 10.08C27.6786 10.444 27.3753 10.7053 27.114 10.864C27.618 10.9667 28.122 11.0507 28.626 11.116C29.13 11.172 29.634 11.2233 30.138 11.27C30.2686 11.2793 30.4413 11.2887 30.656 11.298C30.8706 11.298 31.0946 11.298 31.328 11.298C31.5706 11.298 31.8133 11.3027 32.056 11.312C32.2986 11.312 32.5133 11.3213 32.7 11.34C32.896 11.3587 33.0546 11.3867 33.176 11.424C33.2973 11.452 33.358 11.494 33.358 11.55L33.344 11.62C32.5973 11.6013 31.8553 11.5873 31.118 11.578C30.3806 11.5593 29.6386 11.5127 28.892 11.438C29.62 11.5313 30.3526 11.5873 31.09 11.606C31.8273 11.6247 32.5646 11.6573 33.302 11.704L33.26 11.956C33.2786 11.956 33.2973 11.9513 33.316 11.942C33.344 11.942 33.3766 11.942 33.414 11.942C33.5073 11.942 33.6193 11.9467 33.75 11.956C33.89 11.9747 34.0206 11.998 34.142 12.026C34.2633 12.0633 34.366 12.1053 34.45 12.152C34.5433 12.208 34.59 12.2687 34.59 12.334C34.59 12.3993 34.5526 12.4507 34.478 12.488C34.4126 12.5347 34.3333 12.572 34.24 12.6C34.156 12.628 34.0673 12.6513 33.974 12.67L33.778 12.726ZM25 10.976L25.07 10.808C25.1166 10.6773 25.2006 10.5467 25.322 10.416C25.4526 10.2853 25.5693 10.1733 25.672 10.08C26.4933 9.37067 27.2586 8.61467 27.968 7.812C28.6866 7.00933 29.368 6.174 30.012 5.306L29.844 5.236C29.3773 5.80533 28.92 6.37467 28.472 6.944C28.0333 7.51333 27.5666 8.06867 27.072 8.61C26.8946 8.806 26.7126 8.99267 26.526 9.17C26.3393 9.338 26.1526 9.51067 25.966 9.688C25.7886 9.8653 25.6113 10.052 25.434 10.248C25.266 10.4347 25.1073 10.6353 24.958 10.85L25 10.976ZM25.462 11.858C25.5926 11.9327 25.7373 11.9933 25.896 12.04C26.064 12.096 26.2366 12.138 26.414 12.166C26.5913 12.194 26.7686 12.2173 26.946 12.236C27.058 12.2453 27.1746 12.2547 27.296 12.264C27.0066 12.2173 26.722 12.1473 26.442 12.054C26.1153 11.942 25.7886 11.8533 25.462 11.788L25.21 11.102C25.2286 10.99 25.322 10.8407 25.49 10.654C25.6673 10.458 25.8633 10.2527 26.078 10.038C26.302 9.8233 26.5166 9.61333 26.722 9.408C26.9366 9.20267 27.0953 9.03467 27.198 8.904C27.114 9.00667 26.96 9.15133 26.736 9.338C26.5213 9.52467 26.2973 9.7253 26.064 9.94C25.84 10.1453 25.6393 10.346 25.462 10.542C25.294 10.7287 25.21 10.8733 25.21 10.976L25.126 11.06L25.42 11.802L25.462 11.858ZM26.82 11.144C27.1186 11.2093 27.4173 11.2653 27.716 11.312C28.0053 11.3587 28.2946 11.396 28.584 11.424C28.2946 11.3867 28.0146 11.3353 27.744 11.27C27.4733 11.2047 27.1886 11.1393 26.89 11.074L26.82 11.144ZM26.176 12.348C25.9053 12.2827 25.6346 12.2127 25.364 12.138L25.42 12.082C25.672 12.194 25.9286 12.278 26.19 12.334C26.4233 12.39 26.6613 12.446 26.904 12.502C26.6613 12.4553 26.4186 12.404 26.176 12.348Z" fill="grey"/>
</svg>
